<?xml version="1.0" encoding="UTF-8"?>
<svg xmlns="http://www.w3.org/2000/svg" version="1.1" viewBox="0 0 614.86 596.05">
  <defs>
    <style>
      .cls-1 {
        fill: #6f43e8;
      }

      .cls-2 {
        fill: #81d825;
      }

      .cls-3 {
        fill: #67cff6;
      }
    </style>
  </defs>
  <!-- Generator: Adobe Illustrator 28.7.0, SVG Export Plug-In . SVG Version: 1.2.0 Build 45)  -->
  <g>
    <g id="Layer_1">
      <g>
        <path class="cls-3" d="M77.5,117.22c.15-.19.3-.38.45-.57-.15.19-.3.38-.45.57Z"/>
        <path class="cls-3" d="M169.74,39.87c.38-.2.77-.39,1.15-.59-.38.2-.77.39-1.15.59Z"/>
        <path class="cls-3" d="M575.84,181.57c-2.72-6.27-5.68-12.41-8.82-18.45-.17-.32-.32-.64-.49-.96C522.02,77.47,435.24,17.98,340.09,7.29,241.02-3.84,139.75,38.57,77.95,116.65c-.15.19-.3.38-.45.57-3.49,4.43-6.85,8.95-10.09,13.58,72.27-50.94,128.99-18.62,128.99-18.62l37.53,22s249.45,146.25,249.45,146.25c16.42,9.63,16.42,33.37,0,43l36.67-21.5c61.19-45.42,55.96-118.14,55.79-120.35Z"/>
        <path class="cls-2" d="M196.41,491.68V155.67c0-19.26,20.91-31.24,37.53-21.5l-37.53-22s-56.72-32.32-128.99,18.62c-8.26,11.83-15.67,24.3-22.2,37.43-3.15,6.35-6.07,12.84-8.77,19.44-.18.45-.35.9-.53,1.35-27.54,68.67-27.85,147.35-.72,216.22,27.72,70.37,83.37,128.69,152.33,159.7.74.33,1.46.67,2.2,1,7.21,3.17,14.57,6.05,22.07,8.64.82.28,1.65.56,2.47.84,7.59,2.55,15.31,4.82,23.17,6.75.62.15,1.24.28,1.86.43,8.17,1.95,16.46,3.61,24.88,4.85-62.75-21.37-67.76-95.76-67.76-95.76Z"/>
        <path class="cls-1" d="M599.49,282.76c-.71-15.1-2.6-30.14-5.72-44.98-.06-.31-.15-.62-.21-.93-.98-4.58-2.04-9.13-3.31-13.89-3.78-14.25-8.61-28.08-14.4-41.4.17,2.21,5.4,74.94-55.79,120.35,0,0-36.67,21.5-36.67,21.5l-249.45,146.25c-16.61,9.74-37.53-2.24-37.53-21.5v43.5s5.01,74.39,67.84,95.77c6.32.93,12.72,1.6,19.16,2.13,1.41.12,2.81.23,4.23.32,90.81,6.01,182.65-32.19,241.97-101.41,48.4-56.47,73.36-131.67,69.88-205.73Z"/>
      </g>
    </g>
  </g>
</svg>